PathFileType	4	(X/Y/Z)	C:/Users/beibeiliu/ov580/test_trc\sequence.14_training_dense_right.trc
DataRate	CameraRate	NumFrames	NumMarkers	Units	OrigDataRate	OrigDataStartFrame	OrigNumFrames
120	120	14	19	mm	120	1	53
Frame#	Time	ThumbCMC			ThumbMCP			ThumbIP			ThumbTip			IndexMCP			IndexPIP			IndexTip			MiddleMCP			MiddlePIP			MiddleTip			RingMCP			RingPIP			RingTip			PinkyMCP			PinkyPIP			PinkyTip			BackHand1			BackHand2			BackHand3	
		X0	Y0	Z0	X1	Y1	Z1	X2	Y2	Z2	X3	Y3	Z3	X4	Y4	Z4	X5	Y5	Z5	X6	Y6	Z6	X7	Y7	Z7	X8	Y8	Z8	X9	Y9	Z9	X10	Y10	Z10	X11	Y11	Z11	X12	Y12	Z12	X13	Y13	Z13	X14	Y14	Z14	X15	Y15	Z15	X16	Y16	Z16	X17	Y17	Z17	X18	Y18	Z18	
0	0	126.953	-15.5497	132.802	112.252	-42.3673	109.321	120.722	-60.4419	86.3932	145.243	-70.5824	78.2153	151.791	-8.60878	63.7665	148.964	-19.3581	34.2515	144.543	-32.2381	14.4623	179.354	-18.6904	64.2969	179.024	-30.4566	35.959	175.656	-57.4996	16.0837	189.669	-36.5047	71.0759	183.126	-60.9778	52.2322	160.984	-85.2567	61.7282	203.576	-46.7606	89.4394	211.336	-64.4827	71.1493	212.247	-85.1038	55.3267	187.437	-13.4985	119.157	183.291	-3.61177	148.763	158.48	5.23095	127.162	
1	0.00833333	117.513	-10.4812	134.093	99.2406	-33.5416	123.424	99.0114	-56.7957	100.246	112.938	-75.165	90.3893	134.462	-19.389	67.4549	125.399	-29.818	40.1425	119.497	-49.225	21.3291	154.176	-32.865	66.1985	146.611	-52.3434	38.1198	134.077	-78.3814	25.3647	162.773	-52.2885	71.8741	154.035	-78.4544	62.3782	123.843	-91.1126	77.2931	176.931	-63.2467	92.5472	175.77	-85.515	74.114	160.954	-104.555	61.0853	175.198	-24.9318	118.512	178.132	-11.4828	146.085	153.624	1.73673	122.964	
2	0.0166667	118.778	2.42985	139.912	93.5567	-18.8659	126.126	81.0301	-38.8166	106.777	92.227	-61.0335	97.452	127.204	-17.6509	68.2148	114.893	-23.2371	45.3469	103.634	-41.1728	26.7679	138.709	-38.8636	62.5346	123.698	-53.8619	41.8521	101.127	-76.3174	32.0683	143.27	-58.9026	75.4529	121.785	-75.0711	66.4408	94.1924	-79.7835	86.7661	153.468	-71.1551	92.0414	142.623	-90.6387	79.5565	123.873	-104.395	68.2054	167.567	-34.3766	116.322	178.204	-23.3467	141.312	157.738	-1.70454	122.59	
3	0.025	128.055	16.5659	133.956	96.7106	8.74314	124.208	80.3644	-10.3945	102.718	80.7245	-35.7018	93.9764	131.812	-3.69686	66.7002	116.116	-8.9011	39.0239	101.03	-22.1705	22.5439	135.842	-34.3221	63.05	114.656	-44.9249	40.4705	87.6763	-55.8323	32.2119	129.856	-49.9091	71.3022	99.8517	-59.4383	65.8823	76.9568	-50.1399	86.0394	135.95	-65.7343	91.4312	120.474	-79.6079	79.4049	93.6782	-90.042	66.1022	163.119	-32.7259	112.724	174.398	-27.086	142.276	161.501	0.858987	116.67	
4	0.0333333	143.891	26.5784	128.2	112.824	28.571	117.577	91.6701	18.603	96.7014	84.1585	-7.64423	87.9953	143.386	2.08664	59.3781	132.181	4.77915	36.0883	112.17	-2.76148	17.4742	138.919	-21.4235	61.1007	114.461	-27.4397	35.7235	87.9727	-27.8076	25.1815	126.966	-37.2617	71.6437	95.0934	-34.1421	58.9573	73.1416	-18.5142	77.9384	124.251	-56.0824	90.6526	103.52	-64.9596	71.4289	80.134	-67.954	58.8865	160.109	-33.3965	113.799	171.934	-34.9055	140.465	170.909	-6.10171	119.154	
5	0.0416667	160.721	25.5568	125.817	133.608	35.4725	113.437	113.816	34.0449	95.1643	98.6904	14.16	83.1455	160.478	3.86029	59.3098	148.027	3.32189	32.976	133.638	10.7263	10.0017	145.941	-22.8997	60.5193	125.861	-23.2027	35.0527	101.076	-11.9237	21.0498	129.183	-30.7797	65.9703	102.011	-23.8584	53.7949	87.0061	1.51507	65.3768	118.324	-49.2757	85.8147	103.72	-50.8522	69.6488	78.519	-52.8164	50.4078	155.263	-39.4919	112.88	166.59	-37.5205	139.162	176.487	-13.6071	116.628	
6	0.05	174.287	16.8538	127.056	152.807	37.009	109.908	132.389	37.9363	85.7191	113.887	20.4497	74.5736	176.307	-6.33888	59.9922	170.943	-0.0597708	31.7886	154.192	1.71697	10.4019	158.668	-27.0784	58.6757	140.827	-23.3784	32.8791	117.018	-7.58549	17.0609	136.044	-35.8207	65.5216	114.127	-21.0674	49.6514	101.76	6.96651	58.7259	125.041	-45.0363	85.45	105.307	-48.4886	65.9246	87.4046	-46.4273	44.028	161.286	-42.3025	116.125	168.12	-41.4838	143.325	184.627	-21.3826	119.84	
7	0.0583333	187.091	6.54334	132.38	167.801	25.5096	107.947	151.149	27.2698	83.2313	131.903	9.80411	68.4595	194.509	-21.0973	62.6655	187.251	-17.144	33.2686	177.482	-11.074	8.75477	169.838	-41.4326	59.7581	156.199	-34.8622	32.5856	132.229	-15.3712	14.8913	147.476	-46.4141	65.6098	129.026	-29.7809	47.3038	123.15	-0.0042419	52.2572	135.307	-53.9968	86.4157	121.687	-56.3014	65.7477	103.674	-57.2388	41.7306	168.313	-53.6184	114.84	171.959	-52.1588	148.84	195.513	-33.5496	127.094	
8	0.0666667	195.281	-8.60352	130.122	180.68	11.927	107.207	167.884	11.1445	82.7669	150.419	-3.57403	65.4227	210.229	-40.06	67.7488	210.626	-37.3163	39.9217	201.498	-34.14	17.0451	187.208	-58.9959	65.7601	174.956	-51.7793	34.0815	160.364	-34.8908	18.2481	168.199	-61.7484	71.4231	152.671	-48.2862	47.4895	141.23	-14.4292	51.2265	148.802	-70.6117	86.6155	139.107	-72.1561	62.8159	123.01	-73.3316	42.4977	175.391	-68.9938	122.048	175.493	-64.4288	151.151	201.463	-47.4707	134.8	
9	0.075	205.132	-10.6447	138.614	190.772	3.32432	106.878	182.935	0.75164	80.785	169.325	-18.5987	61.846	228.119	-53.0122	79.4845	234.005	-49.9765	54.5145	225.275	-47.7588	24.4671	211.03	-69.8496	72.9393	200.187	-66.0258	42.1494	186.452	-48.9884	23.0762	187.915	-75.0115	79.0028	177.663	-64.2679	51.6895	164.784	-33.0076	48.964	166.187	-84.3041	92.7474	161.543	-88.7531	67.8202	154.863	-89.1471	41.9937	190.009	-70.0416	132.181	183.42	-67.544	157.541	210.617	-53.6515	145.802	
10	0.0833333	208.881	-11.3081	139.035	198.596	1.64303	104.642	192.693	-2.53667	77.403	184.139	-25.8495	61.2424	244.079	-49.6067	93.3493	251.472	-50.7884	60.9295	243.011	-53.9289	36.454	227.747	-71.5455	83.8248	222.519	-73.1694	54.2195	206.674	-55.7182	30.4972	207.623	-80.6554	84.0086	199.876	-73.2916	56.855	184.708	-45.4174	47.6166	185.547	-89.2423	98.5955	186.664	-95.5253	73.6414	182.749	-95.2576	43.1474	201.294	-68.9691	141.133	192.35	-63.9021	167.642	217.392	-46.6796	152.875	
11	0.0916667	204.592	0.422731	142.044	195.229	4.24026	108.062	193.322	-1.16671	75.2112	188.844	-21.6589	57.3619	250.034	-36.7636	93.868	254.786	-40.8475	64.5291	247.436	-40.2199	36.8914	237.72	-59.108	91.2476	235.061	-64.3664	57.1333	220.709	-49.8935	31.7851	219.636	-73.8766	89.7194	213.193	-72.1328	60.6908	197.397	-46.6647	43.979	202.105	-81.7841	98.3317	200.64	-90.625	72.5896	196.005	-88.6576	45.8782	207.576	-64.0633	139.277	195.746	-55.253	167.21	223.044	-33.9901	151.601	
12	0.1	197.767	10.8576	138.764	185.227	11.8538	105.284	181.776	7.27199	78.2949	180.964	-10.8508	57.9331	246.952	-23.2888	89.501	247.733	-26.516	61.6659	242.258	-24.4184	38.1554	239.361	-48.9518	86.8169	233.542	-55.0718	55.2696	219.359	-45.5662	30.7804	222.077	-63.2927	88.8927	215.728	-66.1313	58.1173	204.188	-47.2631	37.0645	202.247	-73.5555	96.473	203.071	-76.1459	70.71	197.713	-70.4805	43.6619	209.1	-53.3595	140.249	194.698	-46.5871	164.921	219.274	-23.1282	154.354	
13	0.108333	188.777	9.85345	134.311	171.888	13.0068	101.943	169.355	4.72017	75.9449	166.996	-9.8999	56.8484	234.192	-16.4037	86.3754	235.955	-18.0544	56.428	226.395	-16.4844	28.0751	229.701	-43.2489	86.8809	230.763	-48.0872	55.4436	215.419	-42.9823	23.7086	217.497	-58.5454	84.7912	217.446	-56.7806	58.2915	204.185	-51.3219	33.6069	196.056	-66.8903	93.8412	193.22	-65.494	63.4891	186.395	-56.5574	42.6444	204.414	-46.3937	139.071	193.754	-43.0677	161.728	214.653	-15.9709	150.785	
